<?xml version="1.0" encoding="UTF-8"?>
<svg xmlns="http://www.w3.org/2000/svg" xmlns:xlink="http://www.w3.org/1999/xlink" width="550px" height="831px" viewBox="0 0 550 830" version="1.1">
<g id="surface1">
<path style=" stroke:none;fill-rule:nonzero;fill:rgb(0%,0%,0%);fill-opacity:1;" d="M 164.816406 18.148438 C 160.417969 21.628906 160.417969 22.363281 160.050781 57.191406 C 159.867188 76.621094 159.316406 95.5 159.132812 98.984375 C 158.582031 104.484375 159.132812 105.398438 162.800781 105.949219 C 166.648438 106.5 167.015625 107.417969 166.464844 116.03125 L 165.917969 125.5625 L 187 126.480469 C 202.765625 127.214844 206.433594 127.761719 201.667969 128.863281 C 198.183594 129.597656 191.035156 132.160156 185.898438 134.546875 C 178.382812 138.027344 176 140.226562 174.351562 145.175781 C 169.949219 158.558594 163.167969 265.972656 166.464844 270.007812 C 167.566406 271.289062 171.785156 285.222656 175.816406 301.351562 C 183.148438 329.214844 184.617188 338.5625 179.667969 325.914062 C 178.382812 322.613281 171.050781 307.402344 163.535156 292.371094 C 155.832031 277.15625 148.316406 261.941406 146.667969 258.457031 C 144.832031 254.976562 143 246.726562 142.265625 240.128906 C 139.699219 213 125.582031 148.292969 120.082031 137.476562 C 116.785156 131.0625 112.199219 127.214844 99.917969 120.980469 C 88 114.929688 70.949219 113.28125 69.117188 118.046875 C 67.832031 121.164062 59.398438 122.8125 57.015625 120.429688 C 56.101562 119.515625 54.265625 119.332031 53.167969 120.0625 C 48.398438 122.996094 45.464844 134.910156 44.550781 156.90625 C 43.449219 179.269531 43.449219 179.636719 47.300781 179.636719 C 53.535156 179.636719 52.066406 184.585938 45.285156 186.96875 C 32.816406 191.1875 20.898438 206.398438 19.066406 220.699219 C 16.867188 235.910156 30.617188 257.359375 45.285156 262.308594 C 51.882812 264.507812 53.535156 269.457031 47.667969 269.457031 C 44 269.457031 44 270.738281 44 396.667969 C 44 522.234375 44 523.882812 47.667969 524.800781 C 52.800781 526.082031 52.25 529.382812 46.382812 531.949219 C 12.101562 546.613281 10.449219 590.789062 43.449219 607.46875 C 46.75 609.117188 50.601562 610.402344 52.25 610.402344 C 55.734375 610.402344 55.734375 613.519531 52.25 617 C 49.132812 620.300781 48.949219 626.167969 51.332031 651.644531 C 54.632812 685.921875 55.183594 689.222656 58.300781 689.222656 C 59.765625 689.222656 62.699219 690.6875 64.535156 692.339844 C 66.917969 694.539062 72.234375 695.820312 80.667969 696.1875 C 92.214844 696.921875 93.683594 696.554688 98.082031 692.15625 C 102.667969 687.574219 103.582031 687.390625 123.75 687.390625 C 147.214844 687.390625 148.5 686.65625 148.5 673.640625 C 148.5 669.242188 153.265625 657.328125 163.351562 636.429688 C 178.75 604.902344 188.832031 581.257812 188.832031 577.222656 C 188.832031 575.941406 189.382812 575.390625 189.933594 575.941406 C 190.484375 576.492188 189.199219 590.972656 187 608.019531 C 184.25 629.832031 183.515625 643.398438 184.25 654.394531 C 186.082031 680.789062 185.351562 679.507812 198.917969 680.972656 C 222.933594 683.539062 220.550781 685.191406 194.882812 684.273438 L 168.667969 683.171875 L 168.667969 703.519531 C 168.667969 724.96875 166.832031 733.214844 162.25 733.214844 C 159.867188 733.214844 159.5 738.164062 159.5 768.59375 C 159.5 801.769531 159.683594 804.335938 163.167969 808.003906 C 166.101562 811.121094 169.035156 812.035156 176.734375 812.035156 C 189.566406 812.035156 191.398438 809.652344 192.5 791.140625 L 193.417969 776.292969 L 210.832031 775.375 C 220.367188 774.824219 255.933594 774.824219 289.667969 775.375 L 351.082031 776.292969 L 352 791.140625 C 352.550781 799.753906 354.015625 807.269531 355.484375 809.101562 C 358.785156 813.136719 376.199219 813.136719 380.234375 809.101562 C 383.898438 805.4375 383.714844 808.003906 383.898438 767.675781 C 384.082031 735.964844 383.898438 733.214844 380.964844 733.214844 C 379.132812 733.214844 377.484375 733.03125 377.484375 732.664062 C 377.300781 732.480469 376.566406 721.484375 376.015625 708.46875 L 374.917969 684.640625 L 348.332031 684.824219 C 320.285156 685.191406 319.550781 684.824219 342.285156 681.339844 L 356.582031 679.140625 L 358.601562 661.726562 C 360.433594 646.878906 360.25 639.914062 357.316406 614.066406 C 355.300781 597.386719 353.285156 580.890625 352.734375 577.40625 C 352.183594 573.375 353.832031 576.125 357.316406 585.105469 C 360.25 592.988281 366.300781 606.917969 370.882812 616.269531 C 375.285156 625.617188 382.433594 640.648438 386.832031 649.445312 C 391.050781 658.246094 394.898438 669.058594 395.449219 673.09375 C 396.917969 687.207031 397.285156 687.390625 420.566406 687.390625 C 440.183594 687.390625 441.464844 687.574219 445.5 691.972656 C 449.167969 695.820312 451.367188 696.554688 460.898438 696.554688 C 467.316406 696.554688 474.101562 695.273438 476.667969 693.804688 C 479.234375 692.339844 483.082031 690.324219 485.101562 689.40625 C 488.582031 687.941406 489.132812 685.554688 490.417969 670.527344 C 491.148438 661.175781 492.066406 651.828125 492.433594 649.8125 C 492.617188 647.796875 493.535156 639.730469 494.265625 632.03125 C 495.367188 619.75 495 617.550781 492.433594 616.632812 C 487.484375 614.800781 489.132812 610.953125 495.550781 609.667969 C 503.433594 608.203125 514.433594 599.035156 518.832031 590.054688 C 530.015625 568.425781 521.582031 542.761719 500.683594 533.230469 C 490.785156 528.832031 489.132812 526.265625 495 524.800781 C 498.667969 523.882812 498.667969 522.234375 498.667969 396.667969 C 498.667969 284.855469 498.300781 269.457031 495.917969 269.457031 C 490.785156 269.457031 493.167969 264.691406 499.582031 262.308594 C 519.382812 255.160156 530.566406 226.378906 520.667969 207.316406 C 515.898438 197.785156 507.285156 189.535156 499.582031 186.785156 C 493.167969 184.402344 490.785156 179.636719 495.917969 179.636719 C 498.117188 179.636719 498.667969 176.886719 498.851562 166.257812 C 499.035156 144.445312 498.484375 135.277344 496.285156 128.679688 C 493.898438 121.898438 487.851562 116.582031 486.382812 120.246094 C 485.464844 122.996094 476.667969 121.164062 475.382812 118.046875 C 473.550781 113.28125 456.5 114.929688 444.582031 120.980469 C 432.117188 127.394531 427.714844 131.0625 424.234375 137.84375 C 421.117188 143.710938 410.117188 187.519531 407 206.21875 C 405.898438 213.183594 404.066406 222.53125 403.148438 226.746094 C 402.234375 230.964844 401.5 238.113281 401.5 242.878906 C 401.5 249.476562 399.300781 255.34375 391.234375 270.921875 C 378.765625 294.570312 368.132812 315.832031 364.832031 324.082031 C 363.550781 327.378906 362.082031 329.765625 361.714844 329.398438 C 360.800781 328.296875 373.632812 276.605469 375.832031 272.757812 C 379.867188 265.605469 375.648438 167.722656 370.332031 148.660156 C 367.398438 138.210938 365.199219 136.378906 345.582031 130.144531 L 334.582031 126.664062 L 356.035156 126.664062 C 367.765625 126.480469 377.851562 125.929688 378.214844 125.011719 C 378.765625 124.28125 378.582031 119.878906 377.851562 115.113281 C 376.566406 106.867188 376.566406 106.5 381.148438 105.949219 C 385 105.582031 385.734375 104.484375 385.367188 100.816406 C 385 98.25 384.632812 79.371094 384.449219 59.023438 C 384.082031 22.179688 384.082031 21.628906 379.683594 18.148438 C 374.367188 13.929688 361.714844 13.566406 356.035156 17.597656 C 352.367188 20.164062 352 21.8125 352 38.128906 L 352 55.90625 L 192.5 55.90625 L 192.5 38.859375 C 192.5 24.378906 191.949219 21.445312 188.832031 18.332031 C 183.882812 13.382812 170.683594 13.382812 164.816406 18.148438 Z M 187 21.996094 C 190.300781 25.296875 190.667969 27.679688 190.300781 40.875 L 189.75 55.90625 L 180.949219 55.359375 C 175.082031 54.808594 170.683594 55.542969 167.75 57.558594 L 163.167969 60.492188 L 163.167969 43.078125 C 163.167969 28.046875 163.714844 25.113281 166.832031 21.996094 C 171.785156 17.046875 182.050781 17.046875 187 21.996094 Z M 378.398438 22.363281 C 380.601562 25.296875 381.332031 30.976562 381.332031 43.441406 L 381.332031 60.492188 L 376.75 57.558594 C 373.816406 55.542969 369.417969 54.808594 363.550781 55.359375 L 354.75 55.90625 L 354.199219 40.875 C 353.832031 27.679688 354.199219 25.296875 357.5 21.996094 C 362.816406 16.679688 374.734375 16.863281 378.398438 22.363281 Z M 377.300781 65.988281 C 377.484375 69.472656 378.949219 77.902344 380.417969 84.6875 C 381.882812 91.46875 383.167969 98.066406 383.167969 99.351562 C 383.167969 101.367188 376.566406 101.550781 350.167969 101.183594 C 312.582031 100.265625 313.132812 100.082031 321.75 114.929688 L 326.148438 122.8125 L 315.332031 122.8125 C 309.464844 122.8125 304.148438 123.363281 303.785156 124.097656 C 303.234375 125.011719 286.917969 125.011719 267.300781 124.464844 C 247.867188 123.730469 217.617188 123.179688 200.015625 122.996094 L 168.117188 122.8125 L 169.398438 115.847656 C 169.949219 112.183594 170.5 107.597656 170.5 105.765625 C 170.5 103.015625 172.882812 102.648438 196.167969 102.648438 C 223.300781 102.648438 224.582031 103.199219 219.449219 110.898438 C 216.515625 115.296875 214.316406 120.980469 215.417969 120.980469 C 217.433594 120.980469 223.667969 108.699219 223.667969 104.667969 L 223.667969 100.449219 L 192.5 101 L 161.332031 101.734375 L 161.332031 96.96875 C 161.332031 94.402344 162.617188 88.167969 164.082031 83.21875 C 165.550781 78.269531 166.832031 71.304688 166.832031 67.640625 C 166.832031 63.972656 167.382812 60.492188 168.117188 59.941406 C 168.667969 59.207031 215.964844 58.839844 272.984375 59.023438 L 376.75 59.574219 Z M 372.898438 104.851562 C 373.449219 106.132812 374.183594 110.714844 374.734375 114.929688 L 375.832031 122.8125 L 328.535156 122.8125 L 324.132812 114.929688 C 321.566406 110.53125 319.917969 106.132812 320.464844 104.851562 C 321.382812 101.734375 371.984375 101.734375 372.898438 104.851562 Z M 92.398438 120.613281 C 92.765625 121.347656 93.867188 136.378906 94.601562 153.976562 C 96.066406 191.003906 98.816406 201.816406 99 170.839844 C 99 157.273438 99.734375 150.308594 101.015625 150.308594 C 102.117188 150.308594 105.417969 151.957031 108.351562 154.160156 C 111.285156 156.175781 113.667969 156.90625 113.667969 155.992188 C 113.667969 153.425781 102.667969 146.644531 98.632812 146.644531 C 95.882812 146.644531 95.332031 144.808594 95.332031 134.726562 L 95.332031 122.8125 L 103.582031 126.847656 C 108.167969 129.046875 111.832031 131.980469 111.832031 133.445312 C 111.832031 134.726562 112.566406 135.460938 113.484375 134.726562 C 116.417969 133.078125 122.285156 151.957031 129.25 185.320312 C 138.234375 228.761719 139.699219 240.679688 138.234375 256.441406 C 136.765625 271.839844 134.933594 270.554688 133.101562 252.960938 C 132.367188 246.359375 130.535156 234.445312 129.066406 226.378906 C 127.601562 218.316406 125.582031 205.484375 124.667969 197.96875 C 123.566406 190.453125 121.550781 178.90625 120.082031 172.304688 C 118.617188 165.707031 116.785156 155.441406 115.867188 149.394531 L 114.214844 138.394531 L 114.582031 152.140625 C 114.949219 159.65625 116.417969 171.207031 117.882812 177.804688 C 121.917969 195.402344 126.132812 221.796875 129.066406 245.261719 C 130.535156 257.726562 132.734375 267.257812 134.199219 269.089844 C 135.851562 270.738281 137.5 274.773438 138.050781 277.890625 C 138.601562 281.1875 143.917969 291.453125 149.601562 300.800781 C 160.964844 319.5 183.332031 363.308594 183.332031 366.972656 C 183.515625 368.257812 184.800781 372.65625 186.265625 376.691406 C 191.398438 390.621094 192.867188 402.535156 194.148438 437.179688 L 195.617188 472.007812 L 195.800781 443.59375 C 196.167969 413.71875 193.601562 392.453125 187.550781 373.023438 C 184.617188 364.226562 184.433594 360.925781 186.082031 356.894531 C 187.367188 353.777344 188.832031 352.675781 189.933594 353.59375 C 190.851562 354.691406 198.183594 354.328125 209 352.675781 C 242.550781 347.175781 345.398438 349.558594 349.25 355.792969 C 349.800781 356.527344 348.882812 360.558594 347.417969 364.773438 C 343.382812 376.324219 342.832031 384.386719 341.734375 453.859375 C 340.632812 517.46875 341.917969 545.144531 346.867188 554.128906 C 348.148438 556.695312 348.148438 558.160156 346.5 559.078125 C 341.367188 562.191406 309.832031 564.574219 271.148438 564.574219 C 226.601562 564.574219 200.382812 562.191406 196.714844 557.609375 C 194.699219 555.226562 194.148438 555.410156 192.683594 559.261719 C 191.765625 561.644531 190.851562 562.558594 190.851562 561.277344 C 190.484375 556.328125 187.367188 559.445312 184.25 567.691406 C 180.582031 577.957031 156.933594 625.617188 152.351562 632.398438 C 146.484375 640.832031 144.832031 647.980469 145.382812 663.742188 C 145.75 684.457031 144.648438 685.921875 128.515625 685.191406 L 116.417969 684.640625 L 116.964844 676.390625 C 117.332031 671.808594 118.25 667.59375 118.800781 666.859375 C 119.535156 666.125 124.300781 665.394531 129.25 665.027344 L 138.417969 664.476562 L 139.515625 673.640625 L 140.617188 682.808594 L 140.25 662.644531 L 128.699219 662.09375 C 116.050781 661.542969 116.417969 661.175781 114.582031 674.925781 C 113.484375 683.171875 113.117188 683.722656 107.984375 683.722656 L 102.667969 683.722656 L 102.667969 643.578125 C 102.667969 621.398438 102.117188 602.886719 101.382812 602.519531 C 100.464844 601.96875 100.101562 620.117188 100.464844 642.847656 C 101.015625 683.355469 100.832031 684.273438 96.984375 688.488281 C 93.5 692.15625 91.117188 692.890625 81.582031 692.890625 C 72.601562 692.890625 69.484375 692.15625 66.917969 689.222656 C 65.082031 687.207031 62.515625 685.554688 61.417969 685.554688 C 60.132812 685.554688 58.667969 682.441406 57.933594 678.589844 C 55.917969 665.757812 52.617188 623.417969 53.714844 621.035156 C 54.265625 619.382812 57.933594 618.285156 63.433594 617.917969 C 90.382812 616.632812 109.816406 594.269531 107.617188 566.777344 C 107.066406 560.542969 105.964844 554.3125 104.867188 553.027344 C 103.949219 551.929688 102.484375 548.8125 101.75 546.246094 C 100.648438 542.394531 101.382812 542.761719 106.699219 548.996094 C 112.75 555.777344 113.667969 556.144531 123.015625 556.144531 C 132 555.960938 154.550781 548.261719 146.300781 548.078125 C 144.464844 548.078125 143 546.796875 143 545.511719 C 143 543.679688 149.964844 540.5625 163.714844 536.164062 C 174.898438 532.496094 185.351562 528.648438 186.632812 527.546875 C 188.285156 526.082031 188.832031 526.632812 188.832031 529.382812 C 188.832031 531.582031 187.183594 533.597656 184.984375 534.332031 C 182.964844 535.0625 181.683594 535.980469 182.050781 536.53125 C 182.601562 536.898438 184.617188 536.53125 186.632812 535.429688 C 190.117188 533.597656 190.300781 531.949219 189.75 511.050781 C 189.382812 495.835938 189.566406 491.4375 190.484375 497.671875 C 191.582031 504.453125 191.949219 499.503906 192.132812 478.972656 C 192.316406 461.558594 191.765625 449.460938 190.484375 446.527344 C 188.101562 441.394531 183.148438 440.113281 158.582031 438.28125 L 143.917969 437.179688 L 142.816406 421.414062 L 149.785156 422.699219 C 153.632812 423.433594 163.535156 425.816406 171.785156 428.015625 C 180.035156 430.214844 187.917969 431.3125 189.015625 430.582031 C 190.484375 429.664062 190.851562 426.914062 189.933594 422.332031 C 188.648438 415 187 400.703125 186.449219 391.902344 C 186.265625 389.335938 185.535156 387.503906 184.984375 387.871094 C 183.332031 388.789062 179.300781 374.125 180.582031 372.105469 C 181.132812 371.007812 180.765625 370.273438 179.667969 370.273438 C 178.382812 370.273438 177.832031 369.175781 178.382812 367.707031 C 178.933594 366.242188 178.933594 364.773438 178.199219 364.40625 C 176 363.492188 166.832031 345.34375 166.832031 342.046875 C 166.832031 340.394531 166.101562 339.113281 165.183594 339.113281 C 164.449219 339.113281 161.699219 335.261719 159.316406 330.3125 C 156.933594 325.546875 153.816406 320.414062 152.535156 318.582031 C 151.066406 316.933594 149.785156 314 149.417969 312.167969 C 149.234375 310.332031 147.949219 309.050781 146.851562 309.417969 C 145.566406 309.601562 144.832031 308.867188 145.015625 307.582031 C 146.117188 302.632812 142.632812 297.503906 136.035156 293.652344 C 123.382812 286.503906 62.699219 285.769531 55.917969 292.734375 C 53.535156 295.121094 53.167969 310.148438 53.535156 407.484375 L 54.082031 519.667969 L 61.417969 520.03125 L 68.75 520.214844 L 62.332031 519.117188 L 55.917969 517.832031 L 55.367188 473.472656 L 55 429.113281 L 61.601562 427.832031 C 68.933594 426.546875 128.332031 428.199219 135.667969 429.847656 L 140.25 430.949219 L 140.25 490.703125 C 140.25 558.710938 141.714844 553.210938 123.382812 553.394531 C 114.398438 553.578125 113.300781 553.027344 106.332031 545.878906 C 102.300781 541.664062 99 538.914062 99 539.828125 C 99 540.746094 96.617188 539.097656 93.5 536.164062 C 90.566406 533.414062 88.550781 530.296875 89.101562 529.566406 C 89.464844 528.832031 88.917969 527.546875 87.816406 526.816406 C 86.351562 526.082031 86.167969 526.265625 86.898438 527.546875 C 88.367188 530.113281 85.800781 530.480469 83.417969 528.097656 C 80.484375 525.714844 65.082031 522.417969 56.101562 522.417969 L 47.667969 522.417969 L 47.667969 273.671875 L 59.765625 272.574219 C 77 270.921875 89.832031 264.507812 97.898438 253.507812 C 105.234375 243.609375 109.082031 228.761719 107.25 218.316406 C 102.484375 192.101562 85.800781 177.804688 60.316406 177.804688 L 47.117188 177.804688 L 48.035156 155.257812 C 48.582031 142.976562 50.050781 130.878906 51.148438 128.3125 C 53.167969 124.28125 54.265625 123.730469 60.683594 124.28125 C 68.933594 125.195312 70.398438 129.046875 62.882812 130.878906 C 59.765625 131.796875 57.566406 131.429688 56.648438 129.777344 C 55.367188 127.945312 55 128.3125 55 130.878906 C 55 133.8125 55.917969 133.996094 61.785156 132.894531 C 70.214844 131.429688 71.867188 130.511719 70.582031 128.128906 C 69.851562 127.214844 70.035156 124.828125 70.582031 122.8125 C 71.5 119.699219 73.332031 119.148438 81.582031 119.148438 C 87.082031 119.148438 91.851562 119.878906 92.398438 120.613281 Z M 472.449219 124.648438 C 472.449219 131.429688 472.265625 131.429688 480.882812 132.894531 C 486.75 133.996094 487.667969 133.8125 487.667969 130.878906 C 487.667969 128.3125 487.300781 127.945312 486.015625 129.777344 C 484 133.261719 475.382812 130.695312 474.285156 126.296875 C 473.367188 122.8125 475.75 122.628906 485.464844 125.746094 C 486.566406 126.113281 487.667969 125.5625 487.667969 124.648438 C 487.667969 123.546875 488.398438 122.8125 489.132812 122.8125 C 492.433594 122.8125 495.183594 137.476562 495.550781 156.726562 L 495.917969 176.886719 L 481.25 177.804688 C 469.699219 178.722656 465.117188 179.820312 459.25 183.671875 C 443.851562 193.570312 436.515625 206.765625 436.332031 224.546875 C 436.332031 251.125 455.035156 269.824219 484.917969 272.574219 L 496.832031 273.671875 L 496.832031 521.867188 L 483.265625 522.964844 C 467.132812 524.066406 457.964844 528.28125 448.433594 538.914062 C 439.265625 549.179688 436.332031 556.695312 436.332031 569.890625 C 436.332031 588.589844 444.035156 602.519531 459.25 611.320312 C 465.851562 615.167969 470.433594 616.449219 485.285156 618.285156 C 487.484375 618.652344 489.867188 619.382812 490.601562 620.117188 C 492.25 621.765625 485.464844 685.554688 483.449219 685.554688 C 482.535156 685.554688 479.785156 687.207031 477.214844 689.222656 C 473.734375 691.972656 469.699219 692.890625 462.183594 692.890625 C 453.015625 692.890625 451 692.15625 446.785156 687.757812 L 441.832031 682.625 L 441.285156 640.648438 L 440.917969 598.488281 L 440.367188 641.015625 L 440 683.722656 L 434.5 683.722656 C 429.183594 683.722656 429 683.355469 429 675.839844 C 429 663.742188 426.433594 661.359375 413.417969 662.09375 C 402.785156 662.644531 402.417969 662.828125 401.867188 667.960938 C 401.5 670.890625 402.050781 674.007812 403.148438 675.109375 C 404.617188 676.574219 405.167969 675.109375 405.167969 670.160156 L 405.167969 663.195312 L 414.882812 664.476562 C 420.015625 665.210938 424.601562 665.941406 424.785156 666.125 C 424.964844 666.125 425.332031 670.34375 425.515625 675.476562 L 426.066406 684.640625 L 414.882812 685.191406 C 399.667969 685.921875 397.464844 682.992188 398.199219 661.542969 L 398.75 646.144531 L 382.800781 616.816406 C 374 600.6875 364.285156 581.074219 360.984375 573.375 C 357.683594 564.941406 354.382812 559.625 353.285156 560.359375 C 352.183594 561.09375 351.816406 560.359375 352.550781 558.527344 C 353.285156 556.695312 352.917969 555.59375 351.632812 555.960938 C 350.535156 556.144531 348.332031 552.660156 346.867188 548.078125 C 344.484375 541.296875 343.933594 527.367188 343.933594 466.507812 C 343.933594 419.03125 344.667969 389.519531 346.132812 382.738281 C 349.25 367.15625 353.832031 351.945312 355.667969 351.945312 C 358.964844 351.945312 358.601562 362.207031 354.75 374.488281 C 352.367188 381.820312 349.617188 393.003906 348.699219 399.601562 C 345.949219 417.015625 346.683594 546.0625 349.617188 550.828125 C 351.449219 553.945312 351.632812 553.578125 350.898438 547.160156 C 348.882812 530.113281 348.148438 440.664062 349.800781 416.101562 C 351.816406 386.769531 354.382812 376.691406 367.582031 349.011719 C 374.917969 333.246094 378.765625 326.28125 398.566406 292.371094 C 406.449219 278.988281 407 276.972656 405.898438 269.457031 C 403.699219 253.144531 406.082031 224.363281 412.316406 195.21875 C 422.949219 145.175781 426.984375 134.546875 437.433594 128.496094 C 440.917969 126.296875 444.582031 124.648438 445.683594 124.648438 C 446.601562 124.648438 447.332031 129.414062 447.332031 135.460938 C 447.332031 145.910156 447.148438 146.277344 441.832031 147.191406 C 438.898438 147.925781 434.683594 150.125 432.667969 152.140625 C 427.351562 157.457031 426.617188 156.726562 428.082031 147.925781 C 428.816406 143.710938 428.816406 140.777344 428.265625 141.328125 C 427.535156 142.058594 426.25 148.660156 425.332031 155.992188 C 424.417969 163.507812 421.117188 183.121094 418 199.800781 C 414.882812 216.480469 411.582031 237.378906 410.851562 246.542969 C 409.933594 255.527344 408.648438 264.691406 407.917969 266.707031 C 406.816406 269.457031 407 269.824219 408.648438 268.355469 C 409.933594 267.257812 412.5 254.425781 414.332031 239.945312 C 422.398438 181.289062 427.167969 160.390625 434.316406 154.523438 C 442.933594 147.191406 443.667969 148.476562 443.667969 170.472656 C 443.667969 182.753906 444.398438 190.636719 445.5 190.636719 C 446.601562 190.636719 447.332031 182.386719 447.332031 169.738281 C 447.332031 155.992188 448.066406 148.292969 449.351562 147.375 C 450.816406 146.644531 451.183594 142.242188 450.449219 134.726562 C 449.167969 120.796875 450.449219 119.148438 462.917969 119.148438 C 472.265625 119.148438 472.449219 119.332031 472.449219 124.648438 Z M 329.082031 129.597656 C 345.214844 132.160156 364.285156 140.226562 365.566406 144.625 C 367.582031 152.507812 368.5 158.925781 371.066406 185.136719 C 374.367188 219.78125 376.566406 265.058594 374.917969 267.625 C 374.183594 268.722656 371.617188 267.808594 368.132812 264.875 C 353.464844 252.410156 332.199219 245.992188 299.199219 243.976562 C 285.816406 243.246094 269.316406 242.695312 262.535156 243.0625 C 229.535156 244.710938 217.800781 245.992188 206.433594 249.292969 C 193.964844 252.777344 176.367188 262.308594 173.617188 266.890625 C 172.882812 268.355469 171.234375 269.457031 170.132812 269.457031 C 165.550781 269.457031 173.617188 151.226562 178.933594 142.609375 C 181.867188 138.027344 204.234375 130.511719 223.667969 127.761719 C 236.5 125.929688 315.699219 127.214844 329.082031 129.597656 Z M 74.433594 182.386719 C 96.25 188.804688 109.816406 216.296875 102.300781 238.476562 C 96.617188 255.527344 77.734375 269.457031 60.683594 269.457031 C 49.867188 269.457031 51.515625 266.523438 63.066406 265.242188 C 79.566406 263.589844 90.566406 255.707031 97.351562 241.042969 C 101.199219 232.796875 101.933594 219.230469 98.816406 211.347656 C 92.765625 195.21875 76.816406 183.304688 61.050781 183.304688 C 56.648438 183.304688 53.167969 182.386719 53.167969 181.472656 C 53.167969 178.722656 63.984375 179.269531 74.433594 182.386719 Z M 489.5 181.472656 C 489.5 182.386719 486.566406 183.304688 483.082031 183.304688 C 469.882812 183.304688 453.382812 193.386719 447.332031 205.300781 C 442.382812 215.015625 442.382812 233.894531 447.148438 243.609375 C 453.199219 255.34375 470.617188 265.789062 484.183594 265.789062 C 487.117188 265.789062 489.5 266.523438 489.5 267.625 C 489.5 271.289062 475.933594 269.273438 464.75 263.957031 C 447.515625 255.707031 439.816406 243.609375 439.816406 224.546875 C 439.816406 199.617188 458.699219 180.738281 484.550781 179.820312 C 487.300781 179.636719 489.5 180.371094 489.5 181.472656 Z M 77.367188 190.820312 C 90.566406 197.601562 100.464844 216.664062 97.898438 230.230469 C 96.25 239.578125 86.351562 253.144531 77.917969 257.910156 C 61.417969 267.257812 37.398438 259.742188 27.683594 241.960938 C 19.066406 226.5625 23.285156 205.667969 37.035156 195.769531 C 52.066406 184.953125 63.066406 183.488281 77.367188 190.820312 Z M 501.601562 191.550781 C 505.632812 193.933594 511.5 199.433594 514.433594 203.652344 C 519.199219 210.433594 519.75 213 519.75 224.730469 C 519.75 236.644531 519.199219 238.660156 514.066406 245.808594 C 498.667969 267.074219 469.515625 267.441406 453.199219 246.542969 C 440.550781 230.414062 445.316406 204.75 462.917969 193.570312 C 478.132812 184.035156 487.667969 183.488281 501.601562 191.550781 Z M 324.867188 250.210938 C 336.234375 251.859375 344.300781 254.425781 353.648438 259.375 C 373.449219 269.824219 372.898438 267.625 364.832031 300.617188 C 361.167969 316.199219 356.949219 334.164062 355.667969 340.578125 L 353.285156 352.308594 L 346.867188 351.027344 C 315.515625 345.160156 222.382812 345.34375 195.984375 351.210938 C 191.214844 352.308594 191.035156 351.945312 188.101562 338.746094 C 186.265625 331.414062 182.050781 313.265625 178.566406 298.234375 L 171.964844 271.289062 L 176.367188 267.625 C 184.066406 261.390625 197.265625 254.976562 208.816406 251.859375 C 231.734375 245.992188 292.417969 245.078125 324.867188 250.210938 Z M 184.433594 351.027344 L 182.964844 358.175781 L 172.699219 337.097656 C 166.832031 325.546875 157.667969 308.683594 152.167969 299.703125 C 142.632812 284.121094 142.082031 282.472656 141.535156 269.457031 L 140.984375 255.707031 L 163.351562 299.703125 C 184.066406 340.761719 185.535156 344.429688 184.433594 351.027344 Z M 402.234375 267.992188 C 402.234375 280.273438 401.132812 282.839844 387.75 305.199219 C 375.832031 325.179688 367.398438 341.3125 365.015625 348.644531 C 362.265625 356.894531 360.25 357.441406 358.417969 350.660156 C 357.5 346.445312 361.167969 337.644531 379.683594 301.167969 C 391.964844 276.605469 402.050781 256.625 402.234375 256.625 C 402.417969 256.625 402.417969 261.757812 402.234375 267.992188 Z M 134.382812 295.300781 C 137.683594 297.136719 144.832031 303.917969 144.832031 305.199219 C 144.832031 305.382812 142.265625 305.199219 139.148438 304.652344 C 133.648438 303.917969 133.648438 303.917969 134.75 309.96875 C 136.214844 319.132812 140.25 425.082031 138.964844 426.179688 C 138.601562 426.363281 125.765625 425.816406 110.550781 424.714844 C 92.214844 423.433594 77.734375 423.433594 68.75 424.53125 L 55 426.363281 L 55 361.84375 C 55 312.351562 55.550781 296.953125 57.382812 295.484375 C 61.050781 292.371094 70.765625 291.820312 101.382812 292.554688 C 118.617188 292.917969 131.816406 294.019531 134.382812 295.300781 Z M 147.398438 316.199219 C 151.066406 321.699219 154 328.296875 154 330.679688 C 154 334.347656 152.898438 335.078125 147.398438 335.8125 C 142.816406 336.363281 140.617188 335.8125 139.515625 333.796875 C 137.5 329.398438 136.949219 306.117188 138.964844 306.117188 C 139.882812 306.117188 143.734375 310.699219 147.398438 316.199219 Z M 166.832031 350.660156 C 176.917969 371.742188 182.417969 391.355469 184.433594 412.800781 C 185.535156 425.265625 185.351562 427.097656 182.785156 427.097656 C 179.851562 427.097656 144.648438 418.300781 143.734375 417.382812 C 143 416.648438 139.332031 359.457031 139.332031 348.828125 C 139.332031 339.296875 139.515625 339.113281 144.648438 339.113281 C 151.800781 339.113281 155.832031 337.460938 155.832031 334.347656 C 155.832031 329.03125 158.035156 332.328125 166.832031 350.660156 Z M 167.75 442.3125 L 186.082031 444.511719 L 186.632812 460.09375 C 186.816406 468.707031 186.449219 487.222656 185.714844 501.152344 L 184.25 526.632812 L 176 529.199219 C 171.417969 530.480469 162.800781 533.414062 156.933594 535.246094 C 151.066406 537.265625 145.75 538.546875 145.199219 537.996094 C 144.648438 537.628906 143.917969 515.265625 143.367188 488.503906 C 142.449219 441.761719 142.632812 439.929688 145.933594 440.113281 C 147.765625 440.113281 157.667969 441.210938 167.75 442.3125 Z M 190.117188 476.957031 C 189.75 481.355469 189.382812 477.875 189.382812 469.257812 C 189.382812 460.644531 189.75 457.160156 190.117188 461.375 C 190.484375 465.773438 190.484375 472.742188 190.117188 476.957031 Z M 80.851562 531.03125 C 92.582031 537.082031 101.015625 548.445312 104.5 562.558594 C 109.265625 582.722656 94.417969 606.734375 73.515625 612.96875 C 68.015625 614.617188 61.964844 615.902344 59.949219 615.902344 C 55.367188 615.902344 57.015625 611.320312 61.785156 611.136719 C 72.234375 610.585938 79.199219 607.835938 86.714844 601.238281 C 97.167969 591.886719 100.832031 584.191406 100.832031 570.625 C 100.648438 547.34375 84.148438 529.75 62.332031 529.75 C 58.300781 529.75 55 528.832031 55 527.914062 C 55 524.066406 70.765625 526.082031 80.851562 531.03125 Z M 489.5 527.914062 C 489.5 528.832031 486.015625 529.75 481.800781 529.75 C 467.5 529.929688 450.449219 541.296875 445.683594 554.128906 C 442.566406 562.191406 443.300781 582.171875 446.601562 588.957031 C 452.648438 600.6875 466.398438 610.035156 479.601562 611.136719 C 483.449219 611.5 486.933594 612.785156 487.300781 614.066406 C 488.398438 617.367188 472.449219 614.800781 463.648438 610.21875 C 453.199219 604.902344 442.382812 591.523438 440.183594 580.890625 C 437.617188 569.160156 437.617188 568.792969 440.917969 557.609375 C 444.582031 545.511719 452.101562 536.898438 464.199219 530.847656 C 473.734375 526.082031 489.5 524.25 489.5 527.914062 Z M 80.300781 538.363281 C 103.398438 552.660156 103.765625 586.023438 81.035156 601.96875 C 74.25 606.734375 71.5 607.652344 61.601562 607.652344 C 52.066406 607.652344 48.582031 606.734375 41.066406 602.152344 C 21.082031 589.871094 17.234375 560.359375 33.550781 544.960938 C 48.582031 530.664062 64.351562 528.464844 80.300781 538.363281 Z M 499.582031 536.714844 C 518.648438 547.160156 525.617188 568.058594 516.449219 586.9375 C 506 608.203125 480.882812 614.800781 462 601.054688 C 447.699219 590.789062 442.933594 575.941406 448.066406 558.34375 C 451.367188 547.527344 457.601562 540.746094 470.25 535.0625 C 480.515625 530.296875 488.949219 530.847656 499.582031 536.714844 Z M 350.167969 579.421875 C 357.316406 641.015625 357.5 644.128906 354.199219 647.246094 C 350.535156 650.910156 332.015625 656.777344 314.417969 660.078125 C 298.101562 663.195312 243.101562 663.195312 228.25 660.078125 C 209.550781 656.226562 190.851562 650.363281 188.464844 647.613281 C 186.816406 645.597656 186.816406 640.464844 188.464844 625.433594 C 189.75 614.617188 191.582031 596.289062 192.683594 584.738281 C 193.785156 573.191406 194.882812 563.476562 195.25 563.109375 C 195.433594 562.742188 200.933594 563.476562 207.351562 564.574219 C 237.234375 569.523438 328.898438 568.425781 343.199219 562.925781 C 345.582031 562.007812 347.601562 561.460938 347.785156 561.644531 C 347.964844 561.828125 349.066406 569.890625 350.167969 579.421875 Z M 190.667969 566.410156 C 190.667969 568.976562 172.332031 610.035156 159.316406 636.980469 C 149.601562 656.960938 147.582031 659.894531 147.035156 655.496094 C 146.667969 652.5625 148.316406 646.695312 150.882812 641.746094 C 170.683594 603.984375 187 570.441406 187 567.875 C 187 566.042969 187.917969 564.574219 188.832031 564.574219 C 189.933594 564.574219 190.667969 565.308594 190.667969 566.410156 Z M 363.550781 584.738281 C 369.964844 599.585938 379.683594 618.652344 388.851562 634.597656 C 393.617188 642.664062 396 649.078125 396 653.476562 C 396 659.527344 394.535156 657.144531 382.984375 634.046875 C 369.050781 606.003906 353.832031 570.074219 354.015625 566.042969 C 354.015625 563.660156 354.566406 564.574219 363.550781 584.738281 Z M 208.082031 658.792969 C 223.851562 662.828125 256.300781 667.226562 271.882812 667.226562 C 291.5 667.226562 331.832031 660.808594 344.667969 655.679688 L 355.667969 651.09375 L 355.667969 659.710938 C 355.667969 675.65625 355.484375 675.839844 336.785156 678.957031 C 299.382812 685.554688 248.785156 685.738281 210.832031 679.875 C 189.015625 676.390625 189.199219 676.574219 188.464844 663.011719 L 187.917969 651.09375 L 192.5 653.476562 C 195.066406 654.761719 202.035156 657.144531 208.082031 658.792969 Z M 372.167969 697.289062 C 372.167969 702.785156 372.714844 708.46875 373.265625 710.121094 C 374.183594 712.683594 372.535156 713.050781 362.632812 713.050781 C 350.351562 713.050781 347.601562 712.136719 349.800781 708.652344 C 350.351562 707.554688 352.367188 702.785156 353.832031 698.203125 C 356.035156 691.789062 356.214844 689.773438 354.382812 689.773438 C 352.367188 689.773438 348.699219 697.65625 347.601562 704.4375 C 347.050781 708.285156 340.449219 724.96875 338.617188 727.351562 C 337.148438 729 322.300781 729.550781 270.785156 729.183594 C 214.316406 728.632812 204.601562 728.265625 203.316406 725.882812 C 202.582031 724.417969 199.285156 715.617188 195.984375 706.453125 C 192.5 696.738281 189.015625 689.773438 187.550781 689.773438 C 184.984375 689.773438 184.433594 691.605469 186.449219 693.621094 C 188.648438 695.820312 193.964844 711.035156 192.867188 711.953125 C 192.316406 712.683594 187 713.050781 180.949219 713.050781 C 170.5 713.050781 170.132812 712.867188 171.234375 708.835938 C 171.785156 706.636719 172.332031 700.953125 172.332031 696.003906 L 172.332031 687.390625 L 372.167969 687.390625 Z M 374 722.21875 C 374 731.015625 375.464844 735.046875 378.765625 735.046875 C 381.882812 735.046875 382.066406 741.097656 379.316406 749.714844 C 378.035156 753.195312 376.566406 761.078125 376.015625 767.125 C 374.917969 777.941406 374.917969 778.125 369.417969 777.941406 C 366.484375 777.757812 360.617188 776.292969 356.582031 774.824219 C 345.582031 770.425781 198.917969 770.425781 187.917969 774.824219 C 183.882812 776.292969 178.199219 777.757812 175.082031 777.941406 C 169.765625 778.125 169.582031 777.941406 168.484375 767.125 C 167.75 761.078125 166.285156 753.746094 165.183594 750.996094 C 162.25 743.664062 162.617188 735.046875 165.734375 735.046875 C 169.035156 735.046875 170.5 731.015625 170.5 722.035156 L 170.5 714.886719 L 183.332031 714.886719 C 195.433594 714.886719 196.351562 715.070312 198 719.652344 C 200.75 726.800781 200.566406 727.167969 188.648438 726.25 C 181.867188 725.699219 176.734375 726.25 175.449219 727.53125 C 173.984375 729 177.285156 729.550781 188.285156 729.550781 C 196.535156 729.550781 203.867188 730.28125 204.417969 731.382812 C 205.148438 732.480469 199.464844 733.214844 188.648438 733.214844 C 179.300781 733.214844 172.148438 733.765625 172.882812 734.316406 C 174.167969 735.78125 372.167969 735.78125 373.449219 734.316406 C 374.183594 733.765625 365.933594 733.214844 355.484375 733.214844 C 342.464844 733.214844 337.332031 732.664062 339.167969 731.382812 C 340.632812 730.464844 348.515625 729.550781 356.582031 729.550781 C 367.949219 729.367188 370.515625 729 367.765625 727.53125 C 365.933594 726.433594 359.515625 725.882812 353.648438 726.25 C 341.917969 727.167969 341.917969 727.167969 344.667969 719.285156 C 346.5 713.96875 346.5 713.96875 360.25 714.519531 L 374 715.25 Z M 170.867188 781.609375 C 174.714844 782.890625 177.648438 782.707031 182.417969 780.324219 L 188.832031 777.207031 L 188.832031 790.589844 C 188.832031 798.472656 187.917969 804.886719 186.632812 806.171875 C 185.351562 807.453125 180.582031 808.371094 175.632812 808.371094 C 168.851562 808.371094 166.464844 807.636719 165 804.886719 C 164.082031 802.871094 163.351562 791.507812 163.535156 778.675781 C 163.714844 760.710938 164.082031 758.511719 164.816406 768.042969 C 165.917969 778.859375 166.285156 779.957031 170.867188 781.609375 Z M 379.5 804.703125 C 376.566406 810.203125 360.617188 810.019531 356.765625 804.335938 C 353.832031 800.121094 352.550781 777.207031 355.300781 777.207031 C 356.035156 777.390625 358.601562 778.492188 361.167969 779.957031 C 372.535156 786.558594 379.316406 781.792969 379.867188 766.578125 C 380.050781 760.894531 380.601562 766.210938 380.785156 778.675781 C 381.148438 792.238281 380.601562 802.503906 379.5 804.703125 Z M 379.5 804.703125 "/>
<path style=" stroke:none;fill-rule:nonzero;fill:rgb(0%,0%,0%);fill-opacity:1;" d="M 183.515625 75.339844 C 180.035156 85.234375 182.417969 86.152344 209.183594 86.152344 L 232.648438 86.152344 L 233.199219 92.019531 L 233.75 98.066406 L 270.785156 98.617188 L 308 98.984375 L 309.101562 94.585938 C 309.648438 92.019531 309.648438 89.085938 308.917969 88.167969 C 308.183594 86.703125 315.332031 86.152344 331.285156 86.152344 C 359.148438 86.152344 362.449219 84.871094 359.148438 75.519531 L 357.132812 69.65625 L 185.535156 69.65625 Z M 356.398438 76.253906 C 356.949219 77.902344 357.5 79.921875 357.5 80.835938 C 357.5 81.753906 322.484375 82.488281 271.332031 82.488281 C 220.183594 82.488281 185.167969 81.753906 185.167969 80.835938 C 185.167969 73.136719 182.964844 73.320312 271.332031 73.320312 C 346.132812 73.320312 355.484375 73.6875 356.398438 76.253906 Z M 305.800781 91.101562 L 305.25 96.234375 L 235.582031 96.234375 L 235.035156 91.101562 L 234.484375 86.152344 L 306.351562 86.152344 Z M 305.800781 91.101562 "/>
<path style=" stroke:none;fill-rule:nonzero;fill:rgb(0%,0%,0%);fill-opacity:1;" d="M 246.582031 101.550781 C 245.667969 102.101562 242.550781 102.832031 239.800781 103.382812 C 236.867188 104.117188 232.832031 107.234375 230.082031 111.265625 C 223.484375 121.164062 224.398438 122.265625 232.101562 113.648438 C 240.535156 104.484375 246.949219 102.648438 272.25 102.648438 C 295.535156 102.648438 305.984375 106.132812 311.300781 115.480469 C 312.949219 118.414062 315.148438 120.980469 315.882812 120.980469 C 318.449219 120.980469 310.566406 109.433594 305.25 105.398438 C 301.035156 102.285156 297.183594 101.734375 274.449219 101.367188 C 260.148438 101.183594 247.683594 101.183594 246.582031 101.550781 Z M 246.582031 101.550781 "/>
<path style=" stroke:none;fill-rule:nonzero;fill:rgb(0%,0%,0%);fill-opacity:1;" d="M 242 120.980469 C 242 122.082031 253.367188 122.8125 272.25 122.8125 C 291.132812 122.8125 302.5 122.082031 302.5 120.980469 C 302.5 119.878906 291.132812 119.148438 272.25 119.148438 C 253.367188 119.148438 242 119.878906 242 120.980469 Z M 242 120.980469 "/>
<path style=" stroke:none;fill-rule:nonzero;fill:rgb(0%,0%,0%);fill-opacity:1;" d="M 191.582031 361.109375 C 196.714844 381.640625 198 397.585938 199.101562 454.59375 C 200.199219 511.785156 199.101562 540.195312 195.25 550.277344 C 194.515625 552.109375 194.699219 553.578125 195.800781 553.578125 C 200.015625 553.578125 200.75 537.628906 200.566406 461.007812 C 200.566406 392.085938 200.199219 380.90625 197.449219 372.105469 C 194.148438 361.476562 189.382812 352.492188 191.582031 361.109375 Z M 191.582031 361.109375 "/>
<path style=" stroke:none;fill-rule:nonzero;fill:rgb(0%,0%,0%);fill-opacity:1;" d="M 147.582031 430.765625 C 149.601562 431.496094 158.214844 433.332031 166.832031 434.429688 C 175.449219 435.714844 184.25 437.546875 186.632812 438.28125 C 189.75 439.5625 190.667969 439.195312 190.667969 436.996094 C 190.667969 435.53125 189.933594 434.613281 188.832031 435.347656 C 187.917969 435.898438 178.933594 434.613281 168.851562 432.597656 C 149.417969 428.746094 140.800781 427.832031 147.582031 430.765625 Z M 147.582031 430.765625 "/>
<path style=" stroke:none;fill-rule:nonzero;fill:rgb(0%,0%,0%);fill-opacity:1;" d="M 195.25 475.125 C 196.351562 477.875 193.234375 543.128906 191.765625 549.910156 C 191.214844 552.476562 191.765625 551.195312 193.234375 547.160156 C 196.351562 537.8125 198.917969 475.492188 196.167969 473.839844 C 195.25 473.289062 194.699219 473.839844 195.25 475.125 Z M 195.25 475.125 "/>
<path style=" stroke:none;fill-rule:nonzero;fill:rgb(0%,0%,0%);fill-opacity:1;" d="M 177.832031 540.746094 C 173.25 542.578125 163.167969 546.429688 155.464844 549.363281 L 141.167969 554.496094 L 141.167969 572.824219 C 141.167969 592.4375 142.449219 595.738281 149.601562 595.738281 C 155.464844 595.738281 164.265625 584.191406 177.648438 559.261719 C 183.699219 547.710938 188.832031 537.996094 188.832031 537.628906 C 188.832031 536.53125 185.898438 537.265625 177.832031 540.746094 Z M 172.332031 562.558594 C 159.316406 585.472656 151.984375 594.453125 147.765625 592.804688 C 145.382812 591.886719 144.832031 588.40625 144.832031 573.742188 L 144.832031 555.777344 L 154 552.84375 C 159.132812 551.195312 167.566406 547.894531 172.882812 545.511719 C 178.015625 543.128906 182.785156 541.480469 183.148438 541.847656 C 183.515625 542.214844 178.75 551.5625 172.332031 562.558594 Z M 172.332031 562.558594 "/>
<path style=" stroke:none;fill-rule:nonzero;fill:rgb(0%,0%,0%);fill-opacity:1;" d="M 421.667969 289.4375 C 410.300781 290.71875 403.332031 294.753906 397.464844 303.183594 C 394.535156 307.21875 394.351562 308.132812 396.550781 306.300781 C 400.398438 303.183594 400.582031 304.835938 396.734375 310.699219 C 395.082031 313.265625 392.882812 314.734375 391.601562 314 C 390.5 313.449219 390.132812 313.449219 390.867188 314.367188 C 391.601562 315.097656 389.214844 321.515625 385.550781 328.296875 C 381.882812 335.261719 378.214844 340.027344 377.484375 338.929688 C 376.75 337.644531 375.832031 338.011719 375.285156 340.027344 C 374.550781 341.679688 374.734375 342.410156 375.832031 341.863281 C 378.765625 340.027344 378.035156 342.046875 372.351562 352.859375 C 369.417969 358.175781 366.484375 362.207031 365.933594 361.476562 C 365.199219 360.925781 365.199219 361.84375 365.933594 363.675781 C 366.851562 366.058594 366.667969 366.792969 365.199219 365.875 C 363.917969 365.140625 363.367188 365.507812 363.917969 366.972656 C 365.015625 370.273438 358.601562 392.636719 356.949219 390.988281 C 356.035156 390.253906 355.851562 393.371094 356.398438 397.769531 C 357.316406 404.367188 357.132812 405.101562 355.667969 401.433594 C 354.199219 397.585938 354.015625 397.953125 354.75 404.183594 C 355.300781 408.21875 355.667969 416.101562 355.667969 421.78125 L 355.667969 432.046875 L 376.382812 426.914062 C 400.765625 420.683594 401.867188 420.683594 401.132812 424.714844 C 400.765625 426.914062 398.015625 428.382812 392.332031 429.296875 C 378.214844 431.679688 360.066406 435.898438 363 436.078125 C 364.464844 436.078125 373.265625 434.980469 382.25 433.515625 C 402.417969 430.214844 401.5 430.214844 401.5 433.515625 C 401.5 436.628906 398.015625 437.546875 380.417969 438.828125 C 373.449219 439.378906 364.464844 440.296875 360.800781 441.027344 C 353.832031 442.3125 350.535156 439.195312 357.132812 437.546875 C 359.882812 436.8125 359.882812 436.628906 357.132812 436.445312 C 355.484375 436.445312 353.648438 434.796875 353.285156 432.964844 C 352.734375 431.3125 352.734375 437.179688 353.101562 446.34375 C 353.464844 455.328125 354.382812 477.507812 354.933594 495.46875 C 356.035156 526.632812 356.214844 528.28125 360.066406 529.75 C 362.082031 530.480469 371.617188 533.414062 381.148438 536.347656 C 397.832031 541.480469 402.785156 544.960938 397.648438 548.261719 C 395.816406 549.363281 395.816406 549.910156 397.464844 549.910156 C 398.566406 549.910156 399.667969 550.644531 399.667969 551.746094 C 399.667969 553.394531 387.382812 549.726562 381.699219 546.246094 C 379.132812 544.597656 379.316406 544.414062 383.167969 545.328125 C 385.917969 545.878906 384.816406 544.777344 380.417969 542.761719 C 371.800781 538.546875 367.398438 537.8125 374 541.664062 C 380.601562 545.511719 376.382812 544.960938 365.382812 540.746094 C 359.515625 538.546875 355.667969 537.8125 355.667969 539.097656 C 355.667969 541.296875 370.882812 570.257812 376.382812 578.324219 C 386.832031 593.722656 398.015625 600.320312 400.398438 592.4375 C 400.949219 590.789062 401.683594 581.074219 401.867188 570.992188 L 402.417969 552.476562 L 409.566406 555.042969 C 419.285156 558.34375 429.183594 556.511719 434.867188 550.277344 C 443.300781 540.929688 444.398438 537.996094 436.515625 545.695312 C 429.367188 552.84375 427.714844 553.578125 419.648438 553.578125 C 414.882812 553.578125 408.648438 552.660156 406.082031 551.378906 C 401.867188 549.546875 401.316406 548.261719 402.234375 543.863281 C 402.785156 540.929688 403.332031 514.351562 403.332031 484.839844 L 403.332031 431.128906 L 407.550781 429.847656 C 413.601562 428.015625 473.367188 426.363281 481.066406 427.832031 L 487.667969 429.113281 L 487.300781 473.472656 L 486.75 517.832031 L 481.25 518.933594 C 475.75 520.214844 475.75 520.214844 480.699219 520.398438 C 491.699219 520.765625 491.332031 525.164062 491.332031 406.203125 L 491.332031 297.503906 L 486.75 293.285156 C 482.714844 289.4375 480.515625 289.070312 457.050781 288.519531 C 443.117188 288.335938 427.167969 288.703125 421.667969 289.4375 Z M 484.734375 294.9375 C 487.300781 297.136719 487.667969 305.382812 487.667969 361.292969 L 487.667969 425.265625 L 468.050781 424.164062 C 457.050781 423.617188 438.351562 423.980469 426.25 424.898438 C 414.148438 426 404.066406 426.546875 403.699219 426.363281 C 403.515625 426 404.066406 411.515625 404.984375 393.921875 C 406.082031 376.324219 407.367188 349.011719 407.917969 333.0625 L 408.832031 304.285156 L 404.25 304.285156 C 398.933594 304.285156 399.667969 300.800781 405.714844 297.136719 C 411.582031 293.285156 428.449219 291.636719 456.867188 292.1875 C 474.285156 292.554688 482.714844 293.285156 484.734375 294.9375 Z M 403.515625 334.347656 C 402.417969 335.628906 398.933594 336.179688 395.082031 335.8125 C 386.285156 334.714844 386.648438 329.765625 396.550781 316.015625 L 404.25 305.199219 L 404.800781 318.582031 C 405.167969 326.097656 404.433594 333.0625 403.515625 334.347656 Z M 398.199219 339.113281 L 405.714844 339.113281 L 404.617188 345.894531 C 404.066406 349.742188 402.964844 367.339844 402.234375 385.121094 L 400.949219 417.566406 L 389.765625 420.5 C 383.535156 421.964844 373.816406 424.53125 367.765625 426 L 356.949219 428.746094 L 358.234375 416.464844 C 360.984375 390.621094 365.199219 375.039062 375.101562 354.144531 C 384.082031 335.078125 385.183594 333.613281 387.933594 336.179688 C 389.582031 337.828125 393.800781 339.113281 398.199219 339.113281 Z M 399.851562 488.871094 C 399.667969 516 399.117188 538.179688 398.933594 538.363281 C 398.75 538.546875 389.398438 535.796875 378.035156 532.316406 L 357.5 525.898438 L 357.867188 485.207031 L 358.417969 444.511719 L 374.917969 442.496094 C 384.082031 441.394531 393.433594 440.296875 396 440.113281 L 400.582031 439.929688 Z M 398.75 573.558594 C 398.199219 583.089844 397.285156 591.523438 396.367188 592.4375 C 392.515625 596.289062 381.882812 583.273438 367.765625 556.878906 L 359.332031 541.113281 L 379.316406 548.628906 L 399.484375 556.328125 Z M 398.75 573.558594 "/>
<path style=" stroke:none;fill-rule:nonzero;fill:rgb(0%,0%,0%);fill-opacity:1;" d="M 350.898438 478.421875 C 350.898438 497.121094 351.265625 504.636719 351.449219 495.285156 C 351.816406 486.121094 351.816406 470.722656 351.449219 461.375 C 351.265625 452.210938 350.898438 459.726562 350.898438 478.421875 Z M 350.898438 478.421875 "/>
<path style=" stroke:none;fill-rule:nonzero;fill:rgb(0%,0%,0%);fill-opacity:1;" d="M 46.199219 201.632812 C 24.566406 214.832031 31.351562 249.109375 56.464844 252.410156 C 70.214844 254.242188 85.066406 242.878906 87.265625 228.761719 C 88.734375 220.332031 82.132812 206.398438 74.25 201.632812 C 66.550781 196.867188 54.082031 196.867188 46.199219 201.632812 Z M 71.132812 203.285156 C 78.832031 207.316406 81.765625 211.347656 83.417969 220.515625 C 86.351562 235.910156 75.714844 249.292969 60.683594 249.292969 C 45.648438 249.292969 36.851562 240.496094 36.667969 225.28125 C 36.667969 213.550781 40.148438 207.683594 49.867188 202.917969 C 57.75 198.882812 62.882812 199.066406 71.132812 203.285156 Z M 71.132812 203.285156 "/>
<path style=" stroke:none;fill-rule:nonzero;fill:rgb(0%,0%,0%);fill-opacity:1;" d="M 467.132812 202.734375 C 452.648438 213 451.183594 231.878906 464.015625 244.160156 C 475.933594 255.527344 490.417969 255.707031 501.417969 244.527344 C 512.234375 233.894531 512.234375 217.398438 501.601562 205.667969 C 496.101562 199.800781 494.449219 199.066406 484.734375 198.519531 C 475.566406 197.96875 473 198.703125 467.132812 202.734375 Z M 492.066406 202.367188 C 499.949219 205.667969 507.832031 217.03125 507.832031 225.28125 C 507.832031 232.980469 501.785156 243.0625 495 246.542969 C 492.066406 248.011719 486.015625 249.292969 481.433594 249.292969 C 474.648438 249.292969 472.082031 248.195312 466.765625 243.246094 C 458.882812 235.730469 457.050781 229.128906 459.984375 218.316406 C 462.183594 209.699219 464.933594 206.765625 473.917969 202.550781 C 480.882812 199.25 484.550781 199.25 492.066406 202.367188 Z M 492.066406 202.367188 "/>
<path style=" stroke:none;fill-rule:nonzero;fill:rgb(0%,0%,0%);fill-opacity:1;" d="M 49.5 545.695312 C 40.882812 548.8125 33 560.910156 33 570.992188 C 33 600.503906 72.964844 608.386719 85.066406 581.257812 C 90.382812 569.523438 84.699219 552.476562 73.332031 546.796875 C 68.75 544.414062 54.632812 543.863281 49.5 545.695312 Z M 72.964844 549.910156 C 76.265625 551.929688 80.300781 556.511719 81.765625 559.992188 C 93.5 588.039062 59.214844 609.117188 40.515625 585.472656 C 35.75 579.421875 35.199219 563.84375 39.601562 557.425781 C 47.300781 546.613281 61.964844 543.3125 72.964844 549.910156 Z M 72.964844 549.910156 "/>
<path style=" stroke:none;fill-rule:nonzero;fill:rgb(0%,0%,0%);fill-opacity:1;" d="M 476.300781 544.597656 C 464.382812 547.710938 454.667969 559.808594 454.667969 571.359375 C 454.667969 577.589844 461.265625 589.6875 466.582031 593.171875 C 473.917969 597.9375 482.351562 599.035156 491.882812 596.289062 C 498.851562 594.269531 501.234375 592.4375 505.082031 585.839844 C 507.832031 581.257812 509.667969 575.207031 509.667969 570.992188 C 509.667969 563.109375 503.984375 551.746094 498.117188 548.078125 C 492.617188 544.597656 482.167969 542.945312 476.300781 544.597656 Z M 494.632812 549.910156 C 501.785156 554.3125 507.832031 563.660156 507.832031 570.808594 C 507.832031 573.558594 506 579.242188 503.800781 583.089844 C 493.714844 601.054688 467.132812 599.21875 460.351562 579.972656 C 452.648438 557.609375 475.015625 537.996094 494.632812 549.910156 Z M 494.632812 549.910156 "/>
<path style=" stroke:none;fill-rule:nonzero;fill:rgb(0%,0%,0%);fill-opacity:1;" d="M 237.964844 698.570312 C 234.117188 700.769531 233.382812 712.867188 236.867188 716.351562 C 239.617188 719.101562 303.785156 719.46875 308 716.71875 C 310.933594 714.886719 310.75 702.605469 307.632812 698.753906 C 305.25 696.003906 242.734375 695.636719 237.964844 698.570312 Z M 307.632812 707.917969 L 308.183594 714.703125 L 274.082031 715.25 C 254.285156 715.617188 239.25 715.070312 238.148438 713.96875 C 236.316406 712.136719 235.949219 703.335938 237.785156 701.320312 C 238.515625 700.769531 254.285156 700.402344 272.984375 700.585938 L 307.082031 701.136719 Z M 307.632812 707.917969 "/>
<path style=" stroke:none;fill-rule:nonzero;fill:rgb(0%,0%,0%);fill-opacity:1;" d="M 18.332031 155.808594 C 18.332031 187.519531 19.066406 205.300781 20.167969 205.300781 C 21.265625 205.300781 22 187.519531 22 155.808594 C 22 124.097656 21.265625 106.316406 20.167969 106.316406 C 19.066406 106.316406 18.332031 124.097656 18.332031 155.808594 Z M 18.332031 155.808594 "/>
<path style=" stroke:none;fill-rule:nonzero;fill:rgb(0%,0%,0%);fill-opacity:1;" d="M 520.851562 153.425781 C 520.851562 179.453125 521.582031 202.367188 522.5 204.382812 C 523.417969 206.582031 524.148438 187.335938 524.148438 157.089844 C 524.332031 124.464844 523.601562 106.316406 522.5 106.316406 C 521.398438 106.316406 520.667969 123.179688 520.851562 153.425781 Z M 520.851562 153.425781 "/>
<path style=" stroke:none;fill-rule:nonzero;fill:rgb(0%,0%,0%);fill-opacity:1;" d="M 521.765625 245.992188 C 520.117188 252.59375 520.667969 546.796875 522.5 550.828125 C 523.417969 552.84375 524.148438 487.039062 524.148438 398.136719 C 524.332031 312.351562 523.964844 241.960938 523.601562 241.960938 C 523.234375 241.960938 522.5 243.792969 521.765625 245.992188 Z M 521.765625 245.992188 "/>
<path style=" stroke:none;fill-rule:nonzero;fill:rgb(0%,0%,0%);fill-opacity:1;" d="M 18.332031 397.769531 C 18.332031 499.136719 18.882812 551.746094 20.167969 551.746094 C 21.449219 551.746094 22 499.136719 22 397.769531 C 22 296.402344 21.449219 243.792969 20.167969 243.792969 C 18.882812 243.792969 18.332031 296.402344 18.332031 397.769531 Z M 18.332031 397.769531 "/>
<path style=" stroke:none;fill-rule:nonzero;fill:rgb(0%,0%,0%);fill-opacity:1;" d="M 19.617188 589.6875 C 17.417969 591.703125 18.148438 698.386719 20.167969 698.386719 C 21.265625 698.386719 22 678.773438 22 643.398438 C 22 613.152344 21.816406 588.40625 21.449219 588.40625 C 21.082031 588.40625 20.167969 588.957031 19.617188 589.6875 Z M 19.617188 589.6875 "/>
<path style=" stroke:none;fill-rule:nonzero;fill:rgb(0%,0%,0%);fill-opacity:1;" d="M 521.765625 591.339844 C 519.75 596.472656 520.484375 698.386719 522.5 698.386719 C 523.601562 698.386719 524.332031 678.773438 524.332031 643.398438 C 524.332031 613.152344 523.964844 588.40625 523.601562 588.40625 C 523.234375 588.40625 522.316406 589.6875 521.765625 591.339844 Z M 521.765625 591.339844 "/>
</g>
</svg>
